PathFileType	4	(X/Y/Z)	C:/Users/beibeiliu/ov580/test_trc\sequence.5_training_dense_right.trc
DataRate	CameraRate	NumFrames	NumMarkers	Units	OrigDataRate	OrigDataStartFrame	OrigNumFrames
120	120	10	19	mm	120	295	336
Frame#	Time	ThumbCMC			ThumbMCP			ThumbIP			ThumbTip			IndexMCP			IndexPIP			IndexTip			MiddleMCP			MiddlePIP			MiddleTip			RingMCP			RingPIP			RingTip			PinkyMCP			PinkyPIP			PinkyTip			BackHand1			BackHand2			BackHand3	
		X0	Y0	Z0	X1	Y1	Z1	X2	Y2	Z2	X3	Y3	Z3	X4	Y4	Z4	X5	Y5	Z5	X6	Y6	Z6	X7	Y7	Z7	X8	Y8	Z8	X9	Y9	Z9	X10	Y10	Z10	X11	Y11	Z11	X12	Y12	Z12	X13	Y13	Z13	X14	Y14	Z14	X15	Y15	Z15	X16	Y16	Z16	X17	Y17	Z17	X18	Y18	Z18	
294	2.45	136.77	26.6488	19.5849	123.418	21.3861	-8.14203	122.877	21.4224	-29.6765	126.349	22.4785	-55.5871	137.428	54.0288	-38.6555	126.078	42.0199	-63.1199	119.473	24.2986	-74.1722	155.309	46.1944	-48.1684	145.198	17.6062	-58.2503	144.928	1.91256	-31.1591	167.11	32.6776	-43.8614	155.574	4.88557	-41.5566	153.591	5.155	-14.3391	184.987	20.5528	-39.3669	168.98	-0.165514	-33.8515	160.982	6.56215	-9.59581	185.11	47.3661	-0.223989	185.895	36.7375	29.3773	162.187	50.2505	21.2076	
295	2.45833	135.632	24.4273	22.2253	125.445	20.7759	-8.92063	123.383	21.4973	-32.3454	128.232	21.6749	-56.3208	136.035	54.5785	-37.0754	127.94	43.0116	-63.2324	120.859	23.6714	-77.6025	153.7	46.1027	-45.5233	144.462	20.7227	-60.1357	144.479	2.2671	-32.9881	167.859	29.926	-45.4087	156.788	5.80741	-43.2982	157.586	1.47618	-15.5285	181.225	18.2165	-40.7001	167.882	0.571575	-33.5546	162.085	5.50754	-12.2973	184.071	43.6908	1.26791	187.404	37.2311	25.6383	159.249	50.0253	19.3087	
296	2.46667	138.288	25.1209	19.4354	127.962	19.6006	-10.151	122.382	20.7518	-36.5182	129.232	20.0972	-58.323	136.959	55.5214	-36.8963	131.66	49.2787	-60.7617	123.026	31.5888	-81.0044	155.912	43.6178	-48.5624	144.501	18.2537	-58.5261	145.486	0.984679	-30.4127	166.521	28.2127	-46.6693	153.648	4.69978	-40.5819	155.584	2.33355	-16.3666	181.969	18.322	-41.0756	171.355	-0.699506	-35.5038	164.405	3.00765	-6.76537	184.635	42.2477	2.10495	189.907	35.146	24.7208	159.784	49.1773	21.0577	
297	2.475	138.63	24.0022	20.8505	125.279	19.8583	-11.1984	122.232	18.8022	-34.194	129.426	17.5133	-58.8602	140.982	58.5108	-40.2399	133.602	55.3866	-59.2068	124.513	44.8347	-85.5171	156.544	42.0022	-50.6282	142.68	14.3115	-56.9833	148.454	-0.122948	-31.0972	169.565	28.1636	-44.849	154.926	3.85725	-41.6576	157.593	0.435894	-12.8864	184.249	18.8561	-38.3661	169.726	-1.34853	-34.561	164.128	1.75026	-11.0935	187.511	42.5813	1.29645	185.255	35.7301	26.7153	160.709	49.1548	21.1717	
298	2.48333	136.47	24.3342	21.447	125.704	19.2091	-9.98671	125.653	18.3693	-33.794	128.296	16.552	-57.5592	142.521	59.3269	-37.5061	132.971	62.1437	-62.6539	129.544	57.7731	-83.0461	156.691	41.6445	-48.1433	144.292	14.437	-57.5489	143.528	0.322262	-29.2793	168.782	25.6622	-44.9719	158.528	3.55357	-42.2786	156.816	1.99221	-10.996	185.642	15.646	-40.0858	168.182	1.02502	-35.8578	162.684	4.0154	-11.6305	187.71	42.4698	-1.17355	187.7	33.7802	29.2888	164.101	45.9384	17.5096	
299	2.49167	139.058	23.6922	20.1095	124.16	19.7852	-13.13	124.323	16.6883	-32.7151	130.809	15.3901	-58.7717	142.962	60.159	-35.5481	138.59	64.6075	-57.2799	135.188	67.0158	-81.0985	156.919	39.8707	-51.2057	149.307	14.9	-58.9617	146.859	-1.56922	-31.731	169.954	25.2003	-46.1899	158.303	1.77442	-40.3827	158.012	1.28022	-12.4329	187.553	18.8715	-36.8243	168.439	0.0472232	-33.3683	165.282	5.82135	-7.87335	187.153	43.42	2.7341	190.459	35.1488	25.5389	161.287	47.0544	18.8722	
300	2.5	140.537	24.1443	20.0622	124.226	17.4736	-10.758	123.337	18.4173	-37.0808	130.084	15.4857	-55.4362	145.233	61.9325	-37.5678	141.432	66.4287	-57.9463	137.738	72.1449	-81.8093	157.55	40.7358	-50.0321	146.601	16.6135	-59.8712	149.946	-1.34656	-30.3617	173.034	25.5303	-45.0826	159.558	1.36837	-42.2184	156.101	1.09467	-15.2947	186.604	14.7851	-40.4043	170.292	-3.60127	-30.9369	165.167	3.33772	-9.4473	185.652	44.6701	-0.754728	187.92	36.6822	25.9082	161.287	47.9834	18.184	
301	2.50833	135.528	24.2813	20.4895	127.263	17.9149	-11.7977	123.055	16.1421	-35.6962	133.557	15.5186	-58.7114	145.553	61.9878	-37.5743	142.688	66.7408	-59.4407	142.495	72.4053	-82.7046	159.531	38.4493	-52.7841	148.125	12.4501	-58.7446	149.669	-0.413336	-27.6313	170.772	22.8126	-45.9932	158.716	1.87956	-42.0443	155.72	3.09089	-12.1215	183.386	15.9412	-39.527	172.151	-1.97828	-33.1651	167.246	4.93647	-3.95831	187.294	41.9948	0.614886	189.581	35.8426	28.8655	164.908	47.8528	13.7178	
302	2.51667	139.729	24.3204	18.0495	129.008	17.0535	-11.2024	125.907	15.786	-35.5533	133.852	12.5669	-54.8983	144.951	60.5595	-36.2986	145.889	65.1811	-61.554	142.841	70.2918	-85.1956	159.182	39.3367	-48.5725	150.639	11.1681	-57.8644	149.79	-0.627924	-27.2887	173.864	21.9322	-47.5108	161.729	-0.880083	-40.0219	160.169	0.594423	-11.887	185.453	15.6302	-39.4808	172.291	-3.75727	-30.8998	168.603	4.15943	-6.70128	184.779	44.6721	-0.908537	187.497	35.7142	29.5458	163.542	48.7454	14.428	
303	2.525	137.579	24.3086	18.6653	128.602	17.0865	-13.2508	125.113	14.2502	-37.9528	131.414	9.54686	-57.3382	147.996	58.7146	-37.3929	143.017	64.057	-62.2042	142.078	65.232	-82.7017	161.08	36.7618	-52.5711	146.935	9.5257	-56.8827	148.402	-0.36786	-28.4147	174.995	24.7134	-44.0482	162.906	-2.40126	-40.4376	159.271	0.821496	-11.313	187.948	12.1074	-40.9421	173.63	-3.35125	-32.2146	164.883	6.84951	-6.31101	184.523	43.873	-2.83977	187.287	36.3502	26.1788	161.095	47.9697	15.7024	
